<svg id="Warstwa_1" data-name="Warstwa 1" xmlns="http://www.w3.org/2000/svg" viewBox="0 0 400 115.19"><defs><style>.cls-1{fill:#f7a740;}.cls-2{isolation:isolate;}.cls-3{fill:#1b1613;}</style></defs><path class="cls-1" d="M108.1,593.32c-2.6-3.83-15.58-23.68-8.24-42.35,4.22-10.74,13.87-17.37,27-23.13,41.57-18.28,92-16.18,119.07-13.52a158.32,158.32,0,0,1,41.34-20.57c8.87-2.89,37.12-11.71,70.8-6.25,45.49,7.37,89.46,38.93,113.7,38,3.81-.13,12.63-.45,19-6.47,4.4-4.12,6.22-9.58,6.73-9.32s-.78,6.66-4.09,11.16c-3.83,5.21-11.44,9.64-27.54,9.93-30.88.53-44.77-15-92.54-27.69-6.41-1.7-11.79-3.12-17.95-4.19-22.53-3.92-58-3.51-106.12,22.72a240.62,240.62,0,0,0-57.88-3.63,198.55,198.55,0,0,0-40.74,6.44c-23.1,6.26-41.19,11.88-48.13,27.41C95.23,568.19,104.39,586.7,108.1,593.32Z" transform="translate(-97.64 -485.75)"/><g class="cls-2"><path class="cls-3" d="M170.54,549.61l-4.82,3.7a26.31,26.31,0,0,0-9.58-7.88,28,28,0,0,0-12.28-2.68,27.2,27.2,0,0,0-13.56,3.51,25.19,25.19,0,0,0-9.66,9.44A26.07,26.07,0,0,0,117.21,569a25,25,0,0,0,7.67,18.66q7.67,7.49,19.35,7.49,12.84,0,21.49-10.06l4.82,3.66a30.82,30.82,0,0,1-11.41,9A35.79,35.79,0,0,1,143.86,601q-16.05,0-25.32-10.69a32.23,32.23,0,0,1-7.77-21.78,30.27,30.27,0,0,1,9.41-22.59q9.42-9.17,23.59-9.17a34.62,34.62,0,0,1,15.47,3.39A29.9,29.9,0,0,1,170.54,549.61Z" transform="translate(-97.64 -485.75)"/><path class="cls-3" d="M206.94,538.26l28.52,61.15h-6.6l-9.62-20.12H192.89l-9.52,20.12h-6.82l28.89-61.15Zm-.77,13-10.48,22.13h20.9Z" transform="translate(-97.64 -485.75)"/><path class="cls-3" d="M244.42,538.26H256.6c6.78,0,11.39.28,13.8.83a15.74,15.74,0,0,1,8.85,5.35,15.27,15.27,0,0,1,3.41,10.09,16.32,16.32,0,0,1-2.35,8.79A14.69,14.69,0,0,1,273.6,569q-4.37,1.94-12.06,2l22,28.39H276L254,571h-3.45v28.39h-6.11Zm6.11,6V565l10.53.08c4.08,0,7.1-.38,9.06-1.16a9.52,9.52,0,0,0,4.58-3.72,10.41,10.41,0,0,0,1.64-5.72,9.91,9.91,0,0,0-1.66-5.59,9.31,9.31,0,0,0-4.38-3.6q-2.7-1.08-9-1.08Z" transform="translate(-97.64 -485.75)"/><path class="cls-1" d="M295.23,538.26h12.18q10.18,0,13.81.83a15.74,15.74,0,0,1,8.85,5.35,15.27,15.27,0,0,1,3.41,10.09,16.32,16.32,0,0,1-2.35,8.79,14.69,14.69,0,0,1-6.71,5.72q-4.37,1.94-12.06,2l22,28.39h-7.56L304.8,571h-3.45v28.39h-6.12Zm6.12,6V565l10.53.08c4.08,0,7.1-.38,9.06-1.16a9.52,9.52,0,0,0,4.58-3.72,10.41,10.41,0,0,0,1.64-5.72,9.91,9.91,0,0,0-1.66-5.59,9.36,9.36,0,0,0-4.38-3.6q-2.7-1.08-9-1.08Z" transform="translate(-97.64 -485.75)"/><path class="cls-1" d="M345.76,538.26h35.05v6H351.88v19.17h28.68v6H351.88v24h28.68v6h-34.8Z" transform="translate(-97.64 -485.75)"/><path class="cls-1" d="M390.56,599.41V538.26h1.33l40.69,46.87V538.26h6v61.15h-1.37L396.88,553.1v46.31Z" transform="translate(-97.64 -485.75)"/><path class="cls-1" d="M446.57,544.24v-6h33.51v6H466.44v55.17h-6.23V544.24Z" transform="translate(-97.64 -485.75)"/></g><path class="cls-1" d="M137.85,534.89" transform="translate(-97.64 -485.75)"/><path class="cls-1" d="M400.87,491.15" transform="translate(-97.64 -485.75)"/><path class="cls-1" d="M436,482.28" transform="translate(-97.64 -485.75)"/><path class="cls-1" d="M681.48,556.08" transform="translate(-97.64 -485.75)"/></svg>