<svg xmlns="http://www.w3.org/2000/svg" width="63" height="63.014" viewBox="0 0 63 63.014">
  <path id="Icon_ionic-ios-pricetag" data-name="Icon ionic-ios-pricetag" d="M59.235,3.375H41.5a2.086,2.086,0,0,0-1.472.606L4.587,39.427a4.162,4.162,0,0,0,0,5.872L21.466,62.178a4.162,4.162,0,0,0,5.872,0L62.769,26.746a2.086,2.086,0,0,0,.606-1.472V7.53A4.134,4.134,0,0,0,59.235,3.375ZM52.353,19.5a4.615,4.615,0,1,1,4.083-4.083A4.621,4.621,0,0,1,52.353,19.5Z" transform="translate(-1.875 -1.875)" fill="none" stroke="#99998f" stroke-width="3"/>
</svg>
