<svg xmlns="http://www.w3.org/2000/svg" width="60" height="60" viewBox="0 0 60 60">
  <path id="Icon_awesome-key" data-name="Icon awesome-key" d="M60,20.625A20.636,20.636,0,0,1,35.528,40.89l-2.814,3.166a2.812,2.812,0,0,1-2.1.944H26.25v4.688A2.812,2.812,0,0,1,23.438,52.5H18.75v4.688A2.812,2.812,0,0,1,15.938,60H2.813A2.812,2.812,0,0,1,0,57.188V48.04a2.813,2.813,0,0,1,.824-1.989L19.785,27.09A20.627,20.627,0,1,1,60,20.625ZM39.375,15A5.625,5.625,0,1,0,45,9.375,5.625,5.625,0,0,0,39.375,15Z"/>
</svg>
