<svg xmlns="http://www.w3.org/2000/svg" width="63.047" height="63.048" viewBox="0 0 63.047 63.048">
  <path id="Icon_awesome-phone" data-name="Icon awesome-phone" d="M57.82,2.883,45.632.071A2.831,2.831,0,0,0,42.41,1.7L36.785,14.824a2.805,2.805,0,0,0,.809,3.281l7.1,5.812A43.43,43.43,0,0,1,23.93,44.683l-5.812-7.1a2.809,2.809,0,0,0-3.281-.809L1.711,42.4A2.846,2.846,0,0,0,.071,45.632L2.883,57.82A2.812,2.812,0,0,0,5.625,60,54.368,54.368,0,0,0,60,5.625,2.809,2.809,0,0,0,57.82,2.883Z" transform="translate(1.548 1.549)" fill="none" stroke="#9f9f95" stroke-width="3"/>
</svg>
