<svg xmlns="http://www.w3.org/2000/svg" width="45.464" height="44.923" viewBox="0 0 45.464 44.923">
  <path id="Icon_open-magnifying-glass" data-name="Icon open-magnifying-glass" d="M16.064,0a16.064,16.064,0,0,0,0,32.128,15.877,15.877,0,0,0,7.619-1.882c.18.217,2.147-1.4,2.363-1.219l7.542,7.508,7.947,7.91s2.652.972,3.536,0,0-3.89,0-3.89L28.8,25.845c-.224-.224,1.614-2.035,1.35-2.208a15.848,15.848,0,0,0,2.019-7.619A16.082,16.082,0,0,0,16.11-.045Zm0,4.59A11.42,11.42,0,0,1,27.538,16.065a11.509,11.509,0,0,1-3.029,7.894l-.138.138a4.59,4.59,0,0,0-.6.6,11.485,11.485,0,0,1-7.757,2.892,11.474,11.474,0,0,1,0-22.948Z" transform="translate(0 0.045)" fill="#99998f"/>
</svg>
